<svg xmlns="http://www.w3.org/2000/svg" viewBox="0 0 120 120" fill="none">
  
  <rect x="20" y="15" width="25" height="18" fill="#FFFFFF"></rect>
  <rect x="47" y="15" width="11" height="18" fill="#B0BEC5"></rect>
  <rect x="60" y="15" width="18" height="18" fill="#FFFFFF"></rect>
  <rect x="80" y="15" width="20" height="18" fill="#B0BEC5"></rect>
  <rect x="47" y="35" width="11" height="15" fill="#FFFFFF"></rect>
  <rect x="60" y="35" width="18" height="15" fill="#B0BEC5"></rect>
  <rect x="47" y="52" width="11" height="18" fill="#B0BEC5"></rect>
  <rect x="60" y="52" width="18" height="18" fill="#FFFFFF"></rect>
  <rect x="47" y="72" width="31" height="18" fill="#FFFFFF"></rect>
  <g stroke="#1A2B4A" stroke-width="0.6" opacity="0.35">
    <line x1="20" y1="24" x2="100" y2="24"></line>
    <line x1="32" y1="15" x2="32" y2="33"></line>
    <line x1="47" y1="15" x2="47" y2="90"></line>
    <line x1="60" y1="15" x2="60" y2="90"></line>
    <line x1="78" y1="15" x2="78" y2="90"></line>
    <line x1="90" y1="15" x2="90" y2="33"></line>
    <line x1="47" y1="43" x2="78" y2="43"></line>
    <line x1="47" y1="61" x2="78" y2="61"></line>
    <line x1="47" y1="81" x2="78" y2="81"></line>
  </g>
</svg>